<?xml version="1.0" encoding="UTF-8" standalone="no"?>
<svg width="32px" height="32px" viewBox="0 0 32 32" version="1.1" xmlns="http://www.w3.org/2000/svg" xmlns:xlink="http://www.w3.org/1999/xlink" xmlns:sketch="http://www.bohemiancoding.com/sketch/ns">
    <!-- Generator: Sketch 3.3.3 (12072) - http://www.bohemiancoding.com/sketch -->
    <title>favicon</title>
    <desc>Created with Sketch.</desc>
    <defs></defs>
    <g id="website" stroke="none" stroke-width="1" fill="none" fill-rule="evenodd" sketch:type="MSPage">
        <g id="favicon" sketch:type="MSArtboardGroup">
            <path d="M12.3952096,16.5568862 C12.491018,15.0718563 13.6407186,13.6107784 15.5329341,13.6107784 C17.5688623,13.6107784 18.6467066,14.9041916 18.6946108,16.5568862 L12.3952096,16.5568862 Z M19.0299401,19.5508982 C18.5988024,20.8443114 17.6646707,21.8742515 15.7964072,21.8742515 C13.8562874,21.8742515 12.3712575,20.4371257 12.3233533,18.3772455 L20.994012,18.3772455 C21.0179641,18.2335329 21.0419162,17.9461078 21.0419162,17.6586826 C21.0419162,14.0658683 19.0538922,11.6227545 15.508982,11.6227545 C12.6107784,11.6227545 10,14.0898204 10,17.7065868 C10,21.6107784 12.7065868,23.8622754 15.7964072,23.8622754 C18.4790419,23.8622754 20.3233533,22.257485 20.9700599,20.2215569 L19.0299401,19.5508982 Z M19.4371257,7 L16.6107784,7 L14.5269461,10.497006 L16.4191617,10.497006 L19.4371257,7 Z" id="é" fill="#222424" sketch:type="MSShapeGroup"></path>
            <path d="M11.8418279,6.47377375 C20.3032604,5.74758644 25.9813969,7.23713747 28.6759866,15.0140373 C31.7296933,23.8273909 22.3828573,25.9510903 14.4883493,26.3155232 C13.2141493,26.1995369 11.8462359,26.4363761 10.6657492,25.9675643 C2.79576822,22.8421245 -5.18484432,4.85017515 13.3365254,3.87465389" id="Path-125" stroke="#222424" sketch:type="MSShapeGroup" transform="translate(15.638163, 15.095089) rotate(-88.000000) translate(-15.638163, -15.095089) "></path>
        </g>
    </g>
</svg>